<?xml version="1.0" standalone="no"?><!DOCTYPE svg PUBLIC "-//W3C//DTD SVG 1.1//EN" "http://www.w3.org/Graphics/SVG/1.1/DTD/svg11.dtd"><svg t="1655968612507" class="icon" viewBox="0 0 1316 1024" version="1.1" xmlns="http://www.w3.org/2000/svg" p-id="11833" width="164.5" height="128" xmlns:xlink="http://www.w3.org/1999/xlink"><defs><style type="text/css">@font-face { font-family: feedback-iconfont; src: url("//at.alicdn.com/t/font_1031158_u69w8yhxdu.woff2?t=1630033759944") format("woff2"), url("//at.alicdn.com/t/font_1031158_u69w8yhxdu.woff?t=1630033759944") format("woff"), url("//at.alicdn.com/t/font_1031158_u69w8yhxdu.ttf?t=1630033759944") format("truetype"); }
</style></defs><path d="M1206.641671 0H109.694697a109.694697 109.694697 0 0 0-109.694697 109.694697v804.610606a109.694697 109.694697 0 0 0 109.694697 109.694697h1096.946974a109.694697 109.694697 0 0 0 109.694698-109.694697V109.694697a109.694697 109.694697 0 0 0-109.694698-109.694697zM402.031066 219.389395a146.442421 146.442421 0 1 1-145.893948 146.442421A146.990894 146.990894 0 0 1 402.031066 219.389395zM658.168184 760.732726a48.265667 48.265667 0 0 1-51.008034 43.877879H197.450455a47.717193 47.717193 0 0 1-51.008034-43.877879v-43.877879a143.700054 143.700054 0 0 1 153.572576-131.633637h11.517944a236.940546 236.940546 0 0 0 181.544724 0h11.517943a143.700054 143.700054 0 0 1 153.572576 131.633637z m511.725764-120.664167A18.099625 18.099625 0 0 1 1151.794322 658.168184h-329.084092a18.099625 18.099625 0 0 1-18.099625-18.099625V603.320836a18.099625 18.099625 0 0 1 18.099625-18.099626h329.084092a18.099625 18.099625 0 0 1 18.099626 18.099626z m0-146.442421a18.099625 18.099625 0 0 1-18.099626 18.099625h-329.084092a18.099625 18.099625 0 0 1-18.099625-18.099625v-36.747723A18.099625 18.099625 0 0 1 822.71023 438.77879h329.084092a18.099625 18.099625 0 0 1 18.099626 18.099625z m0-146.442421a18.648099 18.648099 0 0 1-18.099626 18.648099h-329.084092a18.648099 18.648099 0 0 1-18.099625-18.648099v-36.19925a18.648099 18.648099 0 0 1 18.099625-18.648098h329.084092a18.648099 18.648099 0 0 1 18.099626 18.648098z" p-id="11834"></path></svg>