<?xml version="1.0" standalone="no"?><!DOCTYPE svg PUBLIC "-//W3C//DTD SVG 1.1//EN" "http://www.w3.org/Graphics/SVG/1.1/DTD/svg11.dtd"><svg t="1655968356213" class="icon" viewBox="0 0 1024 1024" version="1.1" xmlns="http://www.w3.org/2000/svg" p-id="4763" width="128" height="128" xmlns:xlink="http://www.w3.org/1999/xlink"><defs><style type="text/css">@font-face { font-family: feedback-iconfont; src: url("//at.alicdn.com/t/font_1031158_u69w8yhxdu.woff2?t=1630033759944") format("woff2"), url("//at.alicdn.com/t/font_1031158_u69w8yhxdu.woff?t=1630033759944") format("woff"), url("//at.alicdn.com/t/font_1031158_u69w8yhxdu.ttf?t=1630033759944") format("truetype"); }
</style></defs><path d="M1023.99802 894.588192c-10.04698-9.406981-20.670958-14.97497-30.206939-16.382967-47.871903-15.231969-77.439843-23.039953-61.695875-47.999903 69.05586-51.071897 71.615855-110.143777 61.695875-165.119666C974.847119 514.36596 824.958422 512.318964 817.535437 511.998965c-93.88781 0-161.919673 40.703918-184.575627 106.623784-35.391928 102.655792 27.903944 187.199622 53.439892 211.583573 25.535948 24.383951-46.079907 46.975905-91.775814 56.959885-64.895869 18.303963-69.37586 97.535803-67.391864 136.831723H49.40999A48.959901 48.959901 0 0 1 0.00209 974.58803V49.4079C0.00209 22.143955 21.378047 0 49.40999 0h925.18113C1001.855065 0 1023.99802 21.375957 1023.99802 49.4079V894.588192z m-12.542975 129.279738H606.718864a12.287975 12.287975 0 0 1-12.287976-12.222975v-36.287927c0-20.095959 16.191967-36.479926 36.095927-36.479926 49.087901 0 130.559736-40.959917 130.559736-84.479829v-12.095976c0-20.351959 0-23.039953-29.183941-52.671893a121.727754 121.727754 0 0 1-42.239914-92.479813c0-32.319935 12.415975-62.719873 34.943929-85.631827A117.695762 117.695762 0 0 1 809.151454 575.998836c31.871936 0 61.887875 12.607975 84.47983 35.519928 22.399955 22.911954 34.81593 53.311892 34.815929 85.631827 0 35.711928-15.359969 69.37586-42.239914 92.479813-29.055941 29.56794-29.055941 32.255935-29.055942 49.2799l-0.064 15.615969c0.128 43.519912 81.471835 84.351829 130.559736 84.351829 19.83996 0 36.031927 16.383967 36.031928 36.479926v36.287927a12.287975 12.287975 0 0 1-12.223976 12.287975zM761.407551 720.254544a12.159975 12.159975 0 0 0 7.295985-2.431995 12.479975 12.479975 0 0 0 2.559995-17.279965 48.895901 48.895901 0 0 1-9.407981-29.055941c0-23.039953 15.871968-43.007913 37.759924-47.551904a12.351975 12.351975 0 0 0-4.99199-24.319951c-33.151933 7.039986-57.279884 37.247925-57.279885 71.871855 0 15.871968 4.92799 31.039937 14.207972 43.711911a12.159975 12.159975 0 0 0 9.85598 5.05599z m-258.879477-293.119407a31.999935 31.999935 0 0 0 32.255935-31.614937 31.999935 31.999935 0 0 0-32.255935-31.743935h-83.327831l83.199831-82.047835a31.359937 31.359937 0 0 0 0-44.927909 32.639934 32.639934 0 0 0-45.503908 0L338.624405 353.279286 220.417644 236.799521a32.639934 32.639934 0 0 0-45.567907 0 31.359937 31.359937 0 0 0 0 44.927909l83.263831 82.047835h-77.887842a31.999935 31.999935 0 0 0-32.255935 31.743935 31.999935 31.999935 0 0 0 32.255935 31.679936h128.895739v63.486872h-128.959739a31.999935 31.999935 0 0 0-32.255935 31.679936 31.999935 31.999935 0 0 0 32.255935 31.807936h128.959739v73.98385a31.999935 31.999935 0 0 0 32.190935 31.743936 31.999935 31.999935 0 0 0 32.319935-31.743936v-73.91985H502.529074a31.999935 31.999935 0 0 0 32.255935-31.807936 31.935935 31.935935 0 0 0-32.255935-31.679936H373.632335v-63.487872H502.529074z" p-id="4764"></path></svg>