<svg t="1665106032495" class="icon" viewBox="0 0 1024 1024" version="1.1" xmlns="http://www.w3.org/2000/svg" p-id="14284" width="128" height="128"><path d="M0 0l0 877.708c0 80.46 65.83 146.29 146.285 146.29l877.713 0L1023.998 0 0 0zM804.568 950.858 511.999 950.858l0-146.29L365.714 804.568l0 146.29L219.429 950.858 219.429 658.288l146.285 0 146.285 0 292.569 0L804.568 950.858zM877.708 438.854c0 36.575-36.57 73.145-73.14 73.145L219.429 511.999c-36.575 0-73.145-36.57-73.145-73.145L146.284 73.145l731.423 0L877.707 438.854z" p-id="14285"></path></svg>